<svg width="30" height="30" viewBox="0 0 30 30" fill="none" xmlns="http://www.w3.org/2000/svg">
<path opacity="0.4" d="M15 -0.000244141C23.2725 -0.000244141 30 6.72876 30 14.9998C30 23.2708 23.2725 29.9998 15 29.9998C6.729 29.9998 0 23.2708 0 14.9998C0 6.72876 6.729 -0.000244141 15 -0.000244141Z" fill="#33A87E"/>
<path d="M12.8362 8.66864C13.1227 8.66864 13.4107 8.77814 13.6297 8.99714L18.8602 14.2021C19.0717 14.4136 19.1902 14.7001 19.1902 15.0001C19.1902 15.2986 19.0717 15.5851 18.8602 15.7966L13.6297 21.0046C13.1902 21.4426 12.4792 21.4426 12.0397 21.0016C11.6017 20.5606 11.6032 19.8481 12.0427 19.4101L16.4722 15.0001L12.0427 10.5901C11.6032 10.1521 11.6017 9.44114 12.0397 9.00014C12.2587 8.77814 12.5482 8.66864 12.8362 8.66864Z" fill="#33A87E"/>
</svg>
