<svg width="30" height="30" viewBox="0 0 30 30" fill="none" xmlns="http://www.w3.org/2000/svg">
<path opacity="0.4" d="M15 -0.000244141C6.7275 -0.000244141 0 6.72876 0 14.9998C0 23.2708 6.7275 29.9998 15 29.9998C23.271 29.9998 30 23.2708 30 14.9998C30 6.72876 23.271 -0.000244141 15 -0.000244141Z" fill="#33A87E"/>
<path d="M17.1638 8.66864C16.8773 8.66864 16.5893 8.77814 16.3703 8.99714L11.1398 14.2021C10.9283 14.4136 10.8098 14.7001 10.8098 15.0001C10.8098 15.2986 10.9283 15.5851 11.1398 15.7966L16.3703 21.0046C16.8098 21.4426 17.5208 21.4426 17.9603 21.0016C18.3983 20.5606 18.3968 19.8481 17.9573 19.4101L13.5278 15.0001L17.9573 10.5901C18.3968 10.1521 18.3983 9.44114 17.9603 9.00014C17.7413 8.77814 17.4518 8.66864 17.1638 8.66864" fill="#33A87E"/>
</svg>
