<svg width="18" height="17" viewBox="0 0 18 17" fill="none" xmlns="http://www.w3.org/2000/svg">
<path d="M8.56324 1.13282C8.73172 0.719139 9.31749 0.719138 9.48596 1.13282L11.3843 5.79403C11.4558 5.96949 11.6206 6.08923 11.8096 6.10298L16.8293 6.46804C17.2748 6.50044 17.4558 7.05753 17.1144 7.3456L13.268 10.5914C13.1232 10.7136 13.0602 10.9074 13.1055 11.0913L14.3095 15.9782C14.4164 16.4119 13.9425 16.7562 13.563 16.5205L9.28741 13.8654C9.12646 13.7654 8.92275 13.7654 8.7618 13.8654L4.48619 16.5205C4.10674 16.7562 3.63284 16.4119 3.73969 15.9782L4.94368 11.0913C4.989 10.9074 4.92605 10.7136 4.78125 10.5914L0.934804 7.3456C0.593436 7.05753 0.774446 6.50044 1.21994 6.46804L6.23965 6.10298C6.42861 6.08923 6.59341 5.96949 6.66487 5.79403L8.56324 1.13282Z" fill="#FF961B"/>
</svg>
